<svg width="174" height="34" viewBox="0 0 174 34" fill="none" xmlns="http://www.w3.org/2000/svg">
<path d="M169 33.356V29H173.136V33.356H169Z" fill="#F13024"/>
<path d="M21.9347 32.4047V25.5523H20.9558V17.9338C20.9558 16.6002 20.6294 15.6071 19.9768 14.9545C19.3242 14.3019 18.3169 13.9756 16.955 13.9756C16.2456 13.9756 15.3944 13.9898 14.4013 14.0182C13.4082 14.0466 12.4009 14.0891 11.3794 14.1459C10.3863 14.1742 9.49253 14.2168 8.69805 14.2735V9.2513C9.35066 9.19455 10.0884 9.1378 10.9112 9.08105C11.7341 9.0243 12.5711 8.99593 13.4224 8.99593C14.302 8.96756 15.1248 8.95337 15.8909 8.95337C18.2744 8.95337 20.2464 9.26549 21.807 9.88972C23.3959 10.514 24.5877 11.4929 25.3821 12.8265C26.205 14.1601 26.6164 15.9051 26.6164 18.0615V32.4047H21.9347ZM14.4864 33.0006C12.8123 33.0006 11.3369 32.7027 10.06 32.1068C8.81155 31.5109 7.83264 30.6597 7.12328 29.5531C6.4423 28.4465 6.10181 27.1129 6.10181 25.5523C6.10181 23.8499 6.51323 22.4595 7.33609 21.3813C8.18732 20.3031 9.36485 19.4944 10.8687 18.9553C12.4009 18.4162 14.1885 18.1466 16.2314 18.1466H21.5942V21.6792H16.1463C14.7843 21.6792 13.7345 22.0197 12.9968 22.7007C12.2874 23.3533 11.9327 24.2046 11.9327 25.2544C11.9327 26.3043 12.2874 27.1555 12.9968 27.8081C13.7345 28.4607 14.7843 28.787 16.1463 28.787C16.9692 28.787 17.7211 28.6451 18.4021 28.3614C19.1114 28.0493 19.6931 27.5385 20.1471 26.8292C20.6294 26.0914 20.899 25.0983 20.9558 23.8499L22.4028 25.5098C22.261 27.1271 21.8637 28.4891 21.2111 29.5957C20.5869 30.7023 19.7073 31.5535 18.5723 32.1494C17.4657 32.7168 16.1037 33.0006 14.4864 33.0006Z" fill="white"/>
<path d="M31.5489 32.4047V1.33487H37.4649V32.4047H31.5489ZM28.6547 5.76126V1.33487H37.4649V5.76126H28.6547Z" fill="white"/>
<path d="M43.623 32.4047V9.29386H49.5391V32.4047H43.623ZM40.3884 13.7203V9.29386H49.5391V13.7203H40.3884ZM45.7937 6.52737C44.6303 6.52737 43.7649 6.22944 43.1974 5.63358C42.6583 5.00934 42.3888 4.24323 42.3888 3.33526C42.3888 2.37053 42.6583 1.59024 43.1974 0.994377C43.7649 0.398516 44.6303 0.100586 45.7937 0.100586C46.957 0.100586 47.8083 0.398516 48.3474 0.994377C48.8865 1.59024 49.156 2.37053 49.156 3.33526C49.156 4.24323 48.8865 5.00934 48.3474 5.63358C47.8083 6.22944 46.957 6.52737 45.7937 6.52737Z" fill="white"/>
<path d="M63.6582 32.4047V10.06H65.4458V19.2107H64.935C64.935 17.2812 65.2188 15.593 65.7862 14.1459C66.3821 12.6704 67.2617 11.5212 68.4251 10.6984C69.5884 9.87553 71.0639 9.46411 72.8514 9.46411H72.9791C74.7383 9.46411 76.1996 9.87553 77.363 10.6984C78.5263 11.4929 79.3775 12.6278 79.9166 14.1033C80.4841 15.5504 80.7679 17.2529 80.7679 19.2107H79.9166C79.9166 17.2812 80.2004 15.593 80.7679 14.1459C81.3637 12.6704 82.2433 11.5212 83.4067 10.6984C84.5984 9.87553 86.0881 9.46411 87.8756 9.46411H88.0033C89.7625 9.46411 91.2238 9.87553 92.3872 10.6984C93.5789 11.4929 94.4585 12.6278 95.026 14.1033C95.5934 15.5504 95.8772 17.2529 95.8772 19.2107V32.4047H93.6214V18.6999C93.6214 16.5719 93.0965 14.8552 92.0467 13.55C91.0252 12.2164 89.5072 11.5496 87.4926 11.5496C85.4496 11.5496 83.8323 12.2306 82.6406 13.5926C81.4772 14.9545 80.8956 16.7279 80.8956 18.9127V32.4047H78.6398V18.6999C78.6398 16.5719 78.1149 14.8552 77.065 13.55C76.0436 12.2164 74.5255 11.5496 72.511 11.5496C70.468 11.5496 68.8507 12.2306 67.659 13.5926C66.4956 14.9545 65.9139 16.7279 65.9139 18.9127V32.4047H63.6582Z" fill="white"/>
<path d="M116.309 32.4047V25.7226H115.883V17.5082C115.883 15.7206 115.415 14.3445 114.479 13.3798C113.543 12.3867 111.996 11.8901 109.84 11.8901C109.074 11.8901 108.293 11.9185 107.499 11.9752C106.704 12.0036 105.952 12.0462 105.243 12.1029C104.534 12.1313 103.895 12.188 103.328 12.2732V10.2302C103.895 10.1451 104.491 10.0742 105.115 10.0174C105.768 9.96066 106.421 9.91809 107.073 9.88972C107.726 9.86134 108.35 9.84716 108.946 9.84716C111.187 9.84716 112.975 10.1451 114.309 10.741C115.642 11.3084 116.607 12.188 117.203 13.3798C117.799 14.5431 118.097 16.0328 118.097 17.8487V32.4047H116.309ZM108.52 33.0006C107.016 33.0006 105.669 32.731 104.477 32.1919C103.285 31.6528 102.335 30.8583 101.625 29.8085C100.944 28.7586 100.604 27.4818 100.604 25.9779C100.604 24.5309 100.93 23.2966 101.583 22.2751C102.264 21.2536 103.228 20.4733 104.477 19.9342C105.754 19.3951 107.286 19.1256 109.074 19.1256H116.096V20.9557H108.861C106.931 20.9557 105.442 21.4239 104.392 22.3602C103.37 23.2682 102.86 24.4741 102.86 25.9779C102.86 27.5669 103.413 28.8296 104.519 29.7659C105.626 30.6739 107.073 31.1279 108.861 31.1279C109.967 31.1279 111.046 30.9151 112.095 30.4895C113.145 30.0638 114.025 29.3545 114.734 28.3614C115.444 27.3399 115.827 25.9779 115.883 24.2755L116.735 25.2544C116.65 26.9852 116.224 28.4323 115.458 29.5957C114.72 30.7306 113.755 31.5819 112.564 32.1494C111.372 32.7168 110.024 33.0006 108.52 33.0006Z" fill="white"/>
<path d="M124.971 32.4047V1.33487H127.227V32.4047H124.971ZM121.609 3.25013V1.33487H127.227V3.25013H121.609Z" fill="white"/>
<path d="M135.472 32.4047V10.06H137.77V32.4047H135.472ZM131.769 12.0178V10.06H137.77V12.0178H131.769ZM135.685 5.37821C135.089 5.37821 134.635 5.22215 134.323 4.91003C134.011 4.56954 133.855 4.14392 133.855 3.63319C133.855 3.09407 134.011 2.65427 134.323 2.31378C134.635 1.97329 135.103 1.80304 135.727 1.80304C136.323 1.80304 136.777 1.97329 137.089 2.31378C137.401 2.65427 137.557 3.09407 137.557 3.63319C137.557 4.14392 137.401 4.56954 137.089 4.91003C136.806 5.22215 136.337 5.37821 135.685 5.37821Z" fill="white"/>
<path d="M159.82 32.4047L150.286 21.892H146.711L157.607 10.06H160.16L150.456 20.5726L150.499 19.1681L162.544 32.4047H159.82ZM144.881 32.4047V1.33487H147.136V32.4047H144.881Z" fill="white"/>
</svg>
